<svg width="274" height="68" viewBox="0 0 274 68" fill="none" xmlns="http://www.w3.org/2000/svg">
<rect width="71" height="68" rx="12" fill="#FFC700"/>
<path d="M8.8129 50.4417C8.90531 50.3272 8.988 50.2054 9.06012 50.0775L25.5741 20.7877C29.6619 13.5374 40.3381 13.5374 44.4259 20.7877L60.9399 50.0775C61.012 50.2054 61.0947 50.3272 61.1871 50.4417C61.5822 50.9313 61.6952 51.4335 61.6347 51.885C61.5733 52.3435 61.3292 52.7738 60.9694 53.0974C60.2513 53.7431 59.1334 53.9225 58.2178 53.0897L38.2787 34.9531C36.4306 33.2721 33.5694 33.2721 31.7213 34.9531L11.7822 53.0897C10.8666 53.9225 9.74874 53.7431 9.03064 53.0973C8.67084 52.7738 8.4267 52.3435 8.36529 51.885C8.30481 51.4335 8.41784 50.9312 8.8129 50.4417Z" stroke="black" stroke-width="0.7"/>
<path d="M206.675 55.048C206.205 54.8916 205.807 54.8133 205.48 54.8133C204.982 54.8133 204.591 55.0124 204.307 55.4107C204.022 55.7947 203.816 56.4204 203.688 57.288C203.574 58.1413 203.61 58.7458 203.795 59.1013C203.994 59.4427 204.271 59.6133 204.627 59.6133C204.996 59.6133 205.316 59.5636 205.587 59.464C205.857 59.3502 206.042 59.2791 206.141 59.2507L206.419 60.488C205.636 60.9573 204.89 61.192 204.179 61.192C202.131 61.192 201.284 59.9049 201.64 57.3307C201.996 54.6284 203.254 53.2773 205.416 53.2773C206.028 53.2773 206.596 53.3769 207.123 53.576L206.675 55.048ZM209.244 61H207.26L208.326 53.448H210.076L210.012 54.4507H210.033C210.246 54.1093 210.516 53.8249 210.844 53.5973C211.171 53.3698 211.455 53.256 211.697 53.256C211.939 53.256 212.095 53.2773 212.166 53.32C212.252 53.3484 212.33 53.3769 212.401 53.4053L211.996 55.1333C211.91 55.1191 211.796 55.0907 211.654 55.048C211.526 55.0053 211.377 54.984 211.206 54.984C211.036 54.984 210.858 55.0409 210.673 55.1547C210.488 55.2684 210.253 55.4533 209.969 55.7093L209.244 61ZM213.112 62.728C213.752 62.9413 214.37 63.048 214.968 63.048C215.394 63.048 215.672 62.9911 215.8 62.8773C216.07 62.6356 216.255 62.2302 216.354 61.6613L216.61 60.04H216.568C215.814 60.7938 215.074 61.1707 214.349 61.1707C213.624 61.1707 213.147 60.9573 212.92 60.5307C212.692 60.0898 212.635 59.4213 212.749 58.5253L213.474 53.448H215.48L214.818 58.0347C214.761 58.632 214.754 58.9947 214.797 59.1227C214.897 59.336 215.096 59.4427 215.394 59.4427C215.736 59.4427 216.127 59.2364 216.568 58.824C216.667 58.7387 216.745 58.6747 216.802 58.632L217.528 53.448H219.512L218.36 61.6187C218.217 62.6142 217.89 63.3467 217.378 63.816C216.866 64.2996 216.113 64.5413 215.117 64.5413C214.42 64.5413 213.624 64.392 212.728 64.0933L213.112 62.728ZM222.863 55.7947L222.329 59.5707C222.557 59.6844 222.834 59.7413 223.161 59.7413C223.659 59.7413 224.057 59.5564 224.356 59.1867C224.655 58.8169 224.861 58.1911 224.975 57.3093C225.103 56.4276 225.088 55.816 224.932 55.4747C224.79 55.1333 224.512 54.9627 224.1 54.9627C223.688 54.9627 223.275 55.24 222.863 55.7947ZM221.199 53.448H223.055L222.991 54.4293H223.012C223.183 54.2302 223.41 54.0311 223.695 53.832C224.221 53.4622 224.683 53.2773 225.081 53.2773C225.494 53.2773 225.835 53.3556 226.105 53.512C226.376 53.6684 226.596 53.9031 226.767 54.216C227.122 54.9129 227.222 55.88 227.065 57.1173C226.88 58.4542 226.454 59.4782 225.785 60.1893C225.188 60.8578 224.456 61.192 223.588 61.192C223.048 61.192 222.564 61.0924 222.137 60.8933L221.625 64.3493H219.663L221.199 53.448ZM231.912 53.448L231.741 54.8987H230.098L229.586 58.5253C229.53 58.8524 229.53 59.0942 229.586 59.2507C229.643 59.4071 229.786 59.4853 230.013 59.4853C230.255 59.4853 230.461 59.4569 230.632 59.4C230.802 59.3289 230.916 59.2862 230.973 59.272V60.68C230.916 60.6942 230.831 60.7298 230.717 60.7867C230.603 60.8436 230.475 60.9004 230.333 60.9573C229.978 61.1138 229.579 61.192 229.138 61.192C228.456 61.192 227.994 61.0142 227.752 60.6587C227.51 60.2889 227.446 59.6702 227.56 58.8027L228.136 54.8987H227.325L227.517 53.448H228.328L228.584 51.6347L230.61 51.3147L230.29 53.448H231.912ZM235.079 59.7413C235.506 59.7413 235.84 59.5422 236.082 59.144C236.338 58.7458 236.523 58.1058 236.637 57.224C236.765 56.328 236.758 55.688 236.615 55.304C236.473 54.92 236.196 54.728 235.783 54.728C235.371 54.728 235.044 54.92 234.802 55.304C234.56 55.688 234.375 56.328 234.247 57.224C234.134 58.12 234.141 58.7671 234.269 59.1653C234.397 59.5493 234.667 59.7413 235.079 59.7413ZM238.727 55.4107C238.813 55.9084 238.799 56.5129 238.685 57.224C238.585 57.9351 238.422 58.5396 238.194 59.0373C237.981 59.5351 237.711 59.9476 237.384 60.2747C236.772 60.8862 235.94 61.192 234.888 61.192C233.323 61.192 232.42 60.4738 232.178 59.0373C232.093 58.5396 232.107 57.928 232.221 57.2027C232.377 55.8658 232.811 54.8631 233.522 54.1947C234.162 53.5831 234.98 53.2773 235.976 53.2773C237.568 53.2773 238.486 53.9884 238.727 55.4107Z" fill="#FFC700"/>
<path d="M85.4693 32.0293C84.904 35.9396 84.9982 38.7662 85.752 40.5093C86.6 42.3938 88.3431 43.336 90.9813 43.336C92.1591 43.336 93.2427 43.1711 94.232 42.8413C95.2684 42.5116 96.0458 42.276 96.564 42.1347C96.6111 42.9827 96.6347 43.8307 96.6347 44.6787C96.6347 45.5267 96.6818 46.3747 96.776 47.2227C95.5982 47.6938 94.2791 48.0707 92.8187 48.3533C91.3582 48.636 90.1098 48.7773 89.0733 48.7773C84.692 48.7773 81.6062 47.4111 79.816 44.6787C78.0729 41.9462 77.6018 37.7298 78.4027 32.0293C79.2036 26.2818 80.876 22.0653 83.42 19.38C85.964 16.6947 89.4267 15.352 93.808 15.352C95.2684 15.352 96.5876 15.4933 97.7653 15.776C98.9431 16.0587 99.7204 16.2942 100.097 16.4827C100.521 16.6711 100.828 16.7889 101.016 16.836L99.3907 21.924C98.8724 21.7827 98.1422 21.5471 97.2 21.2173C96.3049 20.8876 95.3156 20.7227 94.232 20.7227C91.4053 20.7227 89.356 21.6649 88.084 23.5493C86.812 25.3867 85.9404 28.2133 85.4693 32.0293ZM118.669 27.7187C117.821 27.6244 116.714 27.5773 115.347 27.5773C113.981 27.5773 112.827 28.1427 111.885 29.2733C110.99 30.404 110.33 32.4533 109.906 35.4213C109.529 38.3422 109.553 40.3444 109.977 41.428C110.448 42.5116 111.343 43.0533 112.662 43.0533C113.463 43.0533 114.24 42.8178 114.994 42.3467C115.795 41.8284 116.431 41.2867 116.902 40.7213L118.669 27.7187ZM116.902 45.032C114.217 47.4347 111.602 48.636 109.058 48.636C105.383 48.636 103.287 46.3511 102.769 41.7813C102.58 40.1796 102.651 38.2009 102.981 35.8453C103.311 33.4427 103.876 31.3933 104.677 29.6973C105.478 28.0013 106.42 26.6116 107.503 25.528C109.529 23.5493 112.05 22.56 115.065 22.56C118.645 22.56 122.249 22.9133 125.877 23.62L122.414 48H116.902V45.032ZM128.502 42.276C128.644 42.3231 128.903 42.4409 129.28 42.6293C129.657 42.8178 130.104 43.0062 130.622 43.1947C131.941 43.6187 133.049 43.8307 133.944 43.8307C134.839 43.8307 135.545 43.6893 136.064 43.4067C136.629 43.0769 136.959 42.5351 137.053 41.7813C137.194 40.9804 137.077 40.3209 136.7 39.8027C136.323 39.2373 135.828 38.6956 135.216 38.1773C134.65 37.6591 134.014 37.1409 133.308 36.6227C132.601 36.0573 131.965 35.4213 131.4 34.7147C130.081 33.16 129.562 31.3462 129.845 29.2733C130.128 27.2004 131.07 25.5516 132.672 24.3267C134.321 23.0547 136.511 22.4187 139.244 22.4187C141.364 22.4187 143.413 22.7484 145.392 23.408L144.402 28.2133C144.025 28.1662 143.366 28.0013 142.424 27.7187C141.529 27.436 140.563 27.2947 139.526 27.2947C137.548 27.2947 136.441 27.9542 136.205 29.2733C136.111 29.8858 136.252 30.4511 136.629 30.9693C137.053 31.4404 137.571 31.9351 138.184 32.4533C138.796 32.9244 139.479 33.4427 140.233 34.008C140.987 34.5262 141.67 35.1151 142.282 35.7747C143.696 37.2822 144.237 39.0724 143.908 41.1453C143.719 43.2182 142.824 44.9849 141.222 46.4453C139.526 47.9058 137.218 48.636 134.297 48.636C132.365 48.636 130.905 48.4476 129.916 48.0707C128.22 47.4582 127.16 46.9871 126.736 46.6573L128.502 42.276ZM156.72 30.7573L154.953 43.2653C155.707 43.6422 156.626 43.8307 157.709 43.8307C159.358 43.8307 160.677 43.2182 161.667 41.9933C162.656 40.7684 163.339 38.6956 163.716 35.7747C164.14 32.8538 164.093 30.828 163.575 29.6973C163.104 28.5667 162.185 28.0013 160.819 28.0013C159.452 28.0013 158.086 28.92 156.72 30.7573ZM151.208 22.984H157.356L157.144 26.2347H157.215C157.78 25.5751 158.534 24.9156 159.476 24.256C161.219 23.0311 162.75 22.4187 164.069 22.4187C165.436 22.4187 166.566 22.6778 167.461 23.196C168.356 23.7142 169.087 24.4916 169.652 25.528C170.83 27.8364 171.16 31.04 170.641 35.1387C170.029 39.5671 168.616 42.9591 166.401 45.3147C164.423 47.5289 161.996 48.636 159.123 48.636C157.332 48.636 155.731 48.3062 154.317 47.6467L152.621 59.0947H146.12L151.208 22.984ZM187.95 27.7187C187.102 27.6244 185.995 27.5773 184.628 27.5773C183.262 27.5773 182.108 28.1427 181.166 29.2733C180.271 30.404 179.611 32.4533 179.187 35.4213C178.81 38.3422 178.834 40.3444 179.258 41.428C179.729 42.5116 180.624 43.0533 181.943 43.0533C182.744 43.0533 183.521 42.8178 184.275 42.3467C185.076 41.8284 185.712 41.2867 186.183 40.7213L187.95 27.7187ZM186.183 45.032C183.498 47.4347 180.883 48.636 178.339 48.636C174.664 48.636 172.568 46.3511 172.05 41.7813C171.861 40.1796 171.932 38.2009 172.262 35.8453C172.591 33.4427 173.157 31.3933 173.958 29.6973C174.759 28.0013 175.701 26.6116 176.784 25.528C178.81 23.5493 181.331 22.56 184.346 22.56C187.926 22.56 191.53 22.9133 195.158 23.62L191.695 48H186.183V45.032ZM212.199 28.4253C211.163 27.86 210.173 27.5773 209.231 27.5773C207.629 27.5773 206.357 28.1427 205.415 29.2733C204.52 30.404 203.861 32.4533 203.437 35.4213C203.06 38.3422 203.083 40.3444 203.507 41.428C203.978 42.5116 204.873 43.0533 206.193 43.0533C206.993 43.0533 207.771 42.8178 208.525 42.3467C209.325 41.8284 209.961 41.2867 210.433 40.7213L212.199 28.4253ZM201.034 25.5987C202.117 24.5151 203.319 23.7378 204.638 23.2667C205.957 22.7956 207.3 22.56 208.666 22.56C210.032 22.56 211.422 22.9133 212.835 23.62L214.319 12.9493L220.962 12.0307L215.945 48H210.433V45.032C207.747 47.4347 205.133 48.636 202.589 48.636C198.914 48.636 196.817 46.3511 196.299 41.7813C196.111 40.1796 196.181 38.2009 196.511 35.8453C196.841 33.4427 197.406 31.3933 198.207 29.6973C199.008 28.0013 199.95 26.6351 201.034 25.5987ZM235.675 33.372C236.004 30.9693 235.934 29.3204 235.463 28.4253C234.991 27.5302 234.308 27.0827 233.413 27.0827C232.565 27.0827 231.694 27.5538 230.799 28.496C229.951 29.3911 229.362 31.0164 229.032 33.372H235.675ZM232.565 43.6187C234.638 43.6187 236.711 43.0298 238.784 41.852L239.491 46.2333C238.36 47.0813 236.475 47.7644 233.837 48.2827C232.848 48.5182 231.717 48.636 230.445 48.636C229.173 48.636 227.925 48.4004 226.7 47.9293C225.522 47.4582 224.556 46.728 223.803 45.7387C222.059 43.4773 221.494 40.2973 222.107 36.1987C222.719 31.7702 224.179 28.3076 226.488 25.8107C228.655 23.5493 231.199 22.4187 234.12 22.4187C238.548 22.4187 241.163 24.5387 241.964 28.7787C242.388 30.9929 242.223 33.5369 241.469 36.4107C241.328 37.0231 241.21 37.3764 241.116 37.4707H228.467C228.137 39.6378 228.372 41.216 229.173 42.2053C230.021 43.1476 231.152 43.6187 232.565 43.6187Z" fill="#FFFEFE"/>
</svg>
